<?xml version="1.0" encoding="utf-8"?>
<!-- Generator: Adobe Illustrator 21.0.0, SVG Export Plug-In . SVG Version: 6.00 Build 0)  -->
<svg version="1.1" id="Layer_1" xmlns="http://www.w3.org/2000/svg" xmlns:xlink="http://www.w3.org/1999/xlink" x="0px" y="0px"
	 viewBox="0 0 46.3 20.3" style="enable-background:new 0 0 46.3 20.3;" xml:space="preserve">
<style type="text/css">
	.st0{fill:#AD111C;}
	.st1{fill:#F8ECDE;}
</style>
<g>
	<g>
		<defs>
			<path id="SVGID_1_" d="M32,12c-0.2-0.1-0.3-0.3-0.2-0.5c0.1-0.6,0.7,0.1,0.7,0c0,0.1,2.2,0.2,2.2,0.2C34.6,12.1,31.8,11.9,32,12z
				 M38.5,12L38.5,12L38.5,12z M38.5,12c-0.1-0.1-0.2-0.3-0.2-0.4c0.1-0.6,0.7,0.1,0.7,0C39.1,12.1,38.4,11.9,38.5,12z M40.7,11
				c-0.2-0.8-1-1.7-1.9-1.7c-0.2,0-1.3-0.1-1.7,0.2c0.3,0.3,0.5,0.6,1,1.4C37,10,36.9,9.8,36.7,9.7c-0.4,0.1-0.5,0.2-0.7,0.5
				c-0.2,0.2-0.1,0.1-0.2,0.5c0,0.3-0.1,0.6-0.1,0.9c0,0.6,0.1,1,0.2,1.2c0.1,0.2,0.3,0.5,0.5,0.7s0.4,0.3,0.5,0.4h0.2
				c0,0.1,0.2,0.2,0.3,0.2s0.2,0,0.4,0.1c0.2,0,0.3,0.1,0.4,0.1h0.2h0.2c0.2,0,0.4,0,0.5-0.1c0.1,0,0.3-0.1,0.4-0.1
				c0.1,0,1.1-0.3,1.5-1.4c0.1-0.2,0.1-0.4,0.2-0.6C41,12,40.7,11.6,40.7,11z M41.1,12c0.2,0.2-0.3,1.8-0.5,1.9
				c-0.5,0.5-0.6,0.8-1.4,1C39.1,15,38.8,15,38.5,15h-0.2h-0.5c-0.2,0-0.3,0-0.5-0.1c-0.1,0-0.2-0.1-0.5-0.2
				c-0.3-0.1-0.5-0.2-0.6-0.2c-0.1-0.1-0.2-0.2-0.4-0.3s-0.3-0.3-0.4-0.4c-0.1-0.2-0.2-0.3-0.3-0.5c0-0.2-0.1-0.3-0.1-0.5
				s-0.1-0.4-0.1-0.6c0-0.6,0.1-1.1,0.2-1.6c0.2-0.5,0.1-0.5,0.5-1c0.1-0.1,0.2-0.3,0.4-0.5c-0.6-0.7-0.7-0.8-0.9-1
				C34.5,8,33.4,8.3,33,7.9c-0.1-0.8,2.1,0.1,2.6-0.2c0.2-0.1,0.6-1.1,0.7-1c0,0.7,0,0.6-0.2,1.2c0.3,0.4,0.3,0.5,0.7,1
				c0.8-0.3,2.3-0.2,2.6,0l0.5,0.2c0.7,0.6,0.8,1.1,1.2,1.9C41.3,11.3,41.1,11.9,41.1,12z M25,12L25,12L25,12z M25,12
				c-0.1-0.1-0.2-0.3-0.2-0.4c0.1-0.6,0.7,0.1,0.7,0C25.6,12.1,25,11.9,25,12z M34.4,10c0,0-0.2,0.7-0.2,0.8c-0.1,0.3,0-0.5-0.5-1
				c0,0-0.2-0.3-0.5-0.5c-0.4-0.4-0.7-0.3-1-0.2c-0.2,0-0.8,0.1-0.9,0.1c-0.3,0-0.7,0.1-0.6,0.1c0,0-0.1,0.2-0.7,0.4
				c-0.2,0.1-0.4,0.2-0.5,0.5s-0.3,0.5-0.4,0.6c0,0.3-0.1,0.6-0.1,0.8c0,0.6,0.1,1,0.2,1.2s0.3,0.5,0.5,0.7s0.4,0.3,0.5,0.4h0.2
				c0,0.1,0.2,0.2,0.3,0.2c0.1,0,0.2,0,0.4,0.1c0.2,0,0.3,0.1,0.4,0.1h0.2h0.2c0.2,0,0.4,0,0.5-0.1c0.1,0,0.3-0.1,0.4-0.1
				c0.2,0,0.8-0.3,0.8-0.5c0.2,0.1,0.2,0.3,0.2,0.5c0,0.3-0.5,0.7-0.6,0.7h-0.1c0,0-0.2,0-0.4,0.1C32.6,15,32.3,15,32,15h-0.2h-0.5
				c-0.2,0-0.3,0-0.5-0.1c-0.1,0-0.2-0.1-0.5-0.2c-0.3-0.1-0.5-0.2-0.6-0.2c-0.1-0.1-0.2-0.2-0.4-0.3c-0.2-0.1-0.3-0.3-0.4-0.4
				c-0.1-0.2-0.2-0.3-0.3-0.5c-0.1-0.2-0.1-0.4-0.2-0.6c0-0.2-0.1-0.4-0.1-0.6c0-0.6,0.1-1.2,0.3-1.6c0.2-0.4,0.6-0.9,1.1-1.2
				c0,0,0-0.2,0.9-0.4c0.4-0.1,1.6-0.5,2.2-0.2l0.7,0.2c0.1,0,0.4,0.4,0.5,0.5C34.4,9.5,34.5,9.6,34.4,10z M22.8,13.6
				c0.2,0.2,0.4,0.3,0.5,0.4h0.2c0,0.1,0.2,0.2,0.3,0.2c0.1,0,0.2,0,0.4,0.1c0.2,0,0.3,0.1,0.4,0.1h0.2H25c0.2,0,0.4,0,0.5-0.1
				c0.1,0,0.3-0.1,0.4-0.1c0.2,0,1.3-0.6,1.5-1.4c0.2,0.2-0.1,1.1-0.3,1.2c-0.5,0.5-0.6,0.8-1.4,1c-0.1,0-0.4,0-0.7,0h-0.2h-0.5
				c-0.2,0-0.3,0-0.5-0.1c-0.1,0-0.2-0.1-0.5-0.2c-0.3-0.1-0.5-0.2-0.6-0.2c-0.1-0.1-0.2-0.2-0.4-0.3c-0.2-0.1-0.3-0.3-0.4-0.4
				c-0.1-0.2-0.2-0.3-0.3-0.5c-0.1-0.2-0.1-0.4-0.2-0.6c0-0.2-0.1-0.4-0.1-0.6c0-0.6,0.1-1.1,0.2-1.6c0.2-0.5,0.1-0.5,0.5-1
				c0.1-0.1,0.2-0.3,0.4-0.5c-0.6-0.7-0.7-0.8-0.9-1c-0.4,0-1.5,0.3-2-0.1c-0.1-0.8,2.1,0.1,2.6-0.2c0.2-0.1,0.6-1.1,0.7-1
				c0,0.7,0,0.6-0.2,1.2c0.3,0.4,0.3,0.5,0.7,1c0.8-0.3,2.3-0.2,2.6,0l0.5,0.2c0.4,0.5,0.6,0.3,0.7,1.2c0,0,0.2,0.4,0,0.7
				c-0.2-0.5-1-1.7-1.9-1.7c-0.2,0-1.3-0.1-1.7,0.2c0.3,0.3,0.5,0.6,1,1.4c-1.1-0.9-1.2-1.1-1.4-1.2c-0.4,0.1-0.5,0.2-0.7,0.5
				c-0.2,0.2-0.1,0.1-0.2,0.5c0,0.3-0.1,0.6-0.1,0.9c0,0.6,0.1,1,0.2,1.2C22.4,13.1,22.6,13.4,22.8,13.6z M19.4,9.8
				c-0.5-0.5-1.1-0.7-1.9-0.7c-0.2,0-0.3,0-0.5,0.1c-0.2,0-0.2,0.1-0.3,0.1l-0.1,0.1c-0.1,0.1-0.1,0.1-0.1,0.2h-0.1h-0.3
				c-0.1,0-0.1,0-0.1,0.1c-0.3,0-0.7,0.3-1,0.8s-0.5,1-0.5,1.5c0,0.1,0,0.4,0.1,0.7c0,0.4,0.2,0.7,0.4,0.9s0.5,0.4,0.9,0.6
				c0.3,0.2,0.6,0.3,0.8,0.3c0.1,0,0.1,0,0.2,0H17h0.3c0.6,0,1-0.1,1.2-0.3l0,0h0.1c0.5-0.4,0.9-0.9,1.1-1.4
				c0.1-0.2,0.2-0.4,0.3-0.6c0.1-1.2-2.5,0.4-3.1-0.5l0.2-0.5c0.8-0.1,2.9,0.6,2.9-0.1C20,10.6,19.8,10.2,19.4,9.8z M19.9,13.9
				c-0.7,0.7-1.6,1.1-2.6,1.1h-0.1c-0.2,0-0.3-0.1-0.4-0.1l0,0c0,0.1-0.2,0.1-0.4,0.1c-0.3,0-0.7-0.1-1.1-0.3
				c-0.4-0.2-0.8-0.5-1.1-0.9s-0.4-0.8-0.4-1.2c0-0.2,0-0.3,0-0.5s0-0.3,0.1-0.5c0-0.1,0.1-0.3,0.1-0.4l0.2-0.4v-0.2
				c0.7-1.4,2-2,3.8-2c0.3,0,0.5,0,0.8,0s0.4,0.1,0.6,0.2c0.2,0.1,0.4,0.2,0.5,0.3c0.2,0.1,0.3,0.3,0.5,0.5s0.3,0.4,0.5,0.7
				c0.1,0.1,0.1,0.4,0.1,0.9C20.9,12.2,20.6,13.1,19.9,13.9z M13,14.6c-0.1,0.2-0.3,0.2-0.4,0.2c-0.1,0-0.2-0.1-0.4-0.3l-0.4-0.4
				c-0.3-0.3-0.8-0.6-1.5-1s-1.6-1-2.8-1.8l0-0.3v-0.1c0-0.1,0-0.1,0.1-0.1s0.2-0.1,0.3-0.1c0.9-0.3,1.5-0.6,1.8-1s0.5-0.9,0.5-1.6
				c0-0.8-0.2-1.3-0.7-1.7C9.1,6.1,8.6,5.9,8,5.9H7.7c-0.1,0-0.3,0-0.4,0.1S7.1,6.4,7.1,6.7c0,0.2,0,0.3,0,0.4s0,0.2,0,0.4v1.7
				c0,0.3,0,0.5,0,0.6v0.5v0.3c0,0.2,0,0.5,0,0.8s0,1.4,0.1,3.4l-0.1,0.1C7,15.1,7,15.1,7,15.1H6.9c-0.3,0.1-0.4,0.1-0.5,0.1
				s-0.1,0-0.2-0.1s-0.1-0.2-0.1-0.4v-0.1c0.2-0.3,0.3-1,0.3-2v-2.5V8.3V7.2c0-0.2,0-0.4-0.1-0.6c0-0.3-0.1-0.4-0.1-0.6
				c0-0.1,0-0.2,0.1-0.2c0-0.1,0.1-0.1,0.2-0.1s0.2,0,0.4-0.1c0.2,0,0.5,0,0.7,0c0.5,0,0.9,0,1.3,0.1c0.4,0,0.7,0.2,1.1,0.4
				c0.3,0.2,0.6,0.4,0.7,0.6C10.9,6.9,11,7.1,11,7.4c0.1,0.2,0.1,0.4,0.1,0.6c0,1.2-0.8,2.1-2.3,2.7c-0.1,0.1-0.2,0.2-0.2,0.2
				c0,0.1,0.1,0.2,0.3,0.4c0.2,0.1,0.5,0.4,1,0.7c0.1,0.1,0.3,0.2,0.5,0.3s0.3,0.2,0.4,0.3c0.2,0.1,0.4,0.2,0.5,0.3
				c0.2,0.1,0.3,0.2,0.4,0.2c0.1,0,0.2,0,0.2,0.1c0,0,0,0.1,0.1,0.1c0.2,0.1,0.4,0.2,0.6,0.4c0.2,0.2,0.4,0.3,0.5,0.3h0.1
				c0,0.1,0.1,0.1,0.1,0.2C13.2,14.3,13.1,14.5,13,14.6z"/>
		</defs>
		<use xlink:href="#SVGID_1_"  style="overflow:visible;fill:#FFFFFF;"/>
		<clipPath id="SVGID_2_">
			<use xlink:href="#SVGID_1_"  style="overflow:visible;"/>
		</clipPath>
	</g>
</g>
<g>
	<path class="st0" d="M5.8,7.4c-0.2-0.3-0.3-0.7-0.4-1C5.1,5.6,5,4.8,5.2,4c0.1-0.4,0.2-0.8,0.4-1.2c0.2-0.3,0.5-0.6,0.8-0.8
		c0.5-0.3,1.1-0.3,1.6,0c0,0,0,0,0,0C7.9,2.2,7.8,2.3,7.8,2.5C7.3,2.5,6.8,2.7,6.5,3c0,0,0,0,0,0.1c0.1,0.3,0.4,0.5,0.6,0.6
		C7.3,3.9,7.5,4,7.8,4.1C8,4.2,8.2,4.3,8.5,4.4c0.1,0.1,0.3,0.1,0.4,0.2c0,0,0,0,0,0C8.7,4.7,8.6,4.8,8.4,4.9
		C7.8,5.3,7.3,5.7,6.8,6.2C6.6,6.4,6.4,6.7,6.2,6.9C6,7.1,5.9,7.3,5.8,7.4z"/>
	<path class="st1" d="M5.8,7.4C5.9,7.3,6,7.1,6.2,6.9c0.2-0.2,0.4-0.5,0.6-0.7c0.5-0.5,1-0.9,1.6-1.3c0.2-0.1,0.3-0.2,0.5-0.3
		c0,0,0,0,0,0c0.1,0,0.1-0.1,0.2-0.1c0.1,0,0.2,0.1,0.2,0.3c0,0.1,0,0.1,0,0.2c0,0.1,0,0.1,0.1,0.1c0.1,0.1,0.1,0.2,0.2,0.3
		c0,0,0.1,0.1,0.1,0.1c0,0,0,0.1,0,0.1c-0.1,0-0.1,0.1-0.2,0.1c-0.1,0-0.1,0.1-0.2,0.1C9.2,5.9,9.1,5.9,9,6C9,6,8.9,6.1,8.8,6.1
		C8.7,6.2,8.6,6.2,8.5,6.3c-0.1,0-0.2,0.1-0.3,0.2C8.2,6.5,8.1,6.5,8,6.6C7.9,6.6,7.8,6.7,7.7,6.8C7.6,6.9,7.4,7,7.3,7.1
		C7.2,7.2,7.1,7.4,7,7.5C6.9,7.6,6.8,7.7,6.7,7.9c0,0.1-0.1,0.2-0.1,0.3c0,0.1-0.1,0.2-0.1,0.2c0,0.1,0,0.1,0,0.2
		c0,0.1-0.1,0.1-0.1,0.1c-0.1,0-0.2-0.1-0.2-0.2C6.1,8.4,6,8.3,6,8.2C5.9,8.1,5.9,8.1,5.8,8C5.7,8,5.6,8,5.6,7.9
		c-0.1-0.1-0.1-0.1,0-0.2C5.6,7.7,5.7,7.6,5.8,7.4z"/>
	<path class="st1" d="M7.8,2.5c0-0.1,0.1-0.3,0.2-0.4c0,0,0,0,0,0C8,2.1,8.1,2,8.1,2C8.2,1.9,8.4,1.9,8.5,2c0.1,0.1,0.1,0.2,0.1,0.3
		c0,0.1,0,0.2,0,0.3c0,0.1-0.1,0.2-0.1,0.3C8.4,3,8.4,3,8.3,3.1C8.2,3.1,8.1,3.1,8,3C7.9,2.9,7.8,2.8,7.8,2.7
		C7.8,2.7,7.8,2.6,7.8,2.5C7.8,2.5,7.8,2.5,7.8,2.5z"/>
</g>
</svg>
