<?xml version="1.0" encoding="utf-8"?>
<!-- Generator: Adobe Illustrator 21.0.0, SVG Export Plug-In . SVG Version: 6.00 Build 0)  -->
<svg version="1.1" id="Layer_1" xmlns="http://www.w3.org/2000/svg" xmlns:xlink="http://www.w3.org/1999/xlink" x="0px" y="0px"
	 viewBox="0 0 206 62" style="enable-background:new 0 0 206 62;" xml:space="preserve">
<style type="text/css">
	.st0{fill:#111212;}
</style>
<g>
	<path class="st0" d="M23.7,14.8c0.2,1.2,0.4,2.4,0.5,3.6c0,0.2-0.1,0.4-0.3,0.5c-5.1,2.2-8.3,6.1-9.4,11.5
		C12.8,38.9,18,47.1,26.2,49c6.3,1.4,11.6-0.5,15.6-5.6c2.5-3.1,3.6-6.8,3.3-10.8c-0.4-5.1-2.7-9.2-6.9-12.2
		c-0.3-0.2-0.4-0.4-0.2-0.7c0.3-1,0.6-2.1,0.9-3.1c0.1-0.3,0.1-0.5,0.5-0.2c4.7,2.9,7.8,7,9.1,12.4c0.1,0.6,0.3,1.2,0.4,1.9
		c0,0.3,0.1,0.4,0.5,0.4c1.5,0,3,0,4.4,0c0.2,0,0.4,0,0.4-0.3c0.5-3.6,1.9-6.9,4.2-9.7c2.6-3.3,6-5.5,10.1-6.5
		c5.2-1.3,10.1-0.6,14.7,2.2c0.5,0.3,0.6,0.1,0.9-0.2c1.6-2,3.2-3.9,4.8-5.9c0.2-0.2,0.3-0.3,0.6-0.1c0.9,0.8,1.7,1.5,2.6,2.2
		c0.2,0.2,0.2,0.3,0,0.5c-2.7,2.8-5.4,5.6-8,8.4c-0.2,0.2-0.4,0.2-0.6,0c-2.4-2.2-5.3-3.4-8.5-3.8C67.1,17,60,22,58.1,29.6
		c-1.3,5.1-0.3,9.9,3,14c2.4,3.1,5.5,5,9.4,5.6c5.4,0.9,10.1-0.7,13.9-4.7c3.1-3.2,4.4-7.1,4.3-11.5c0-1.2,0-1.2-1.1-0.7
		c-1.7,0.7-3.5,1.4-5.2,2.1c-0.3,0.1-0.4,0.1-0.5-0.2c-0.4-1-0.7-1.9-1.1-2.8c-0.1-0.3-0.1-0.4,0.2-0.6c2.8-1.1,5.6-2.3,8.4-3.4
		c0.6-0.2,1.1-0.5,1.7-0.7c0.3-0.1,0.4-0.1,0.4,0.2c0.6,1.6,0.9,3.2,1,4.9c0.3,3-0.1,5.9-1.2,8.7c-2.4,6.2-6.8,10.3-13.2,12
		c-7.4,1.8-13.8-0.2-19-5.8c-2.7-3-4.3-6.5-4.8-10.5c0-0.2-0.1-0.3-0.4-0.3c-1.5,0-3,0-4.6,0c-0.4,0-0.4,0.2-0.4,0.4
		c-0.3,2.6-1.2,5-2.5,7.3c-2.8,4.8-7,7.9-12.4,9.1c-6,1.3-11.5,0-16.2-3.9c-4-3.4-6.3-7.7-6.9-12.8c-0.7-5.6,0.7-10.6,4.2-15
		c0.3-0.4,0.6-0.7,0.9-1c0.3-0.2,0.2-0.4,0-0.7c-1.8-1.8-3.6-3.7-5.3-5.5c-0.4-0.4-0.4-0.6,0-0.9c0.9-0.7,1.6-1.5,2.5-2.2
		c0.2-0.2,0.4-0.2,0.5,0c1.4,1.7,2.7,3.4,4.1,5.2c0.4,0.4,0.7,0.9,1,1.3c0.2,0.2,0.3,0.2,0.5,0C20.6,16.1,22.1,15.4,23.7,14.8z"/>
	<path class="st0" d="M24.4,20c0.1,0.5,0.1,1,0.2,1.5c0.1,0.4-0.1,0.6-0.4,0.7c-3,1.4-5.3,3.6-6.8,6.5c-1.3,2.5-1.7,5.2-1.2,7.9
		c0,0.1,0.1,0.2,0,0.4C14.2,30.4,17.6,22.5,24.4,20z"/>
	<path class="st0" d="M143.4,43.8c0,4.3-3.3,7.6-7.4,7.3c-3.5-0.2-6.2-2.8-6.6-6.4c-0.4-3.6,2-6.9,5.4-7.7c2.2-0.5,4.2-0.1,6,1.3
		c0.3,0.2,0.5,0.4,0.1,0.8c-0.3,0.2-0.4,0.9-1,0.4c-1.9-1.6-4.8-1.7-6.9-0.1c-2,1.5-2.9,4.3-2,6.6c0.9,2.5,3.2,4.1,5.7,3.9
		c3-0.1,5.6-3,5.4-6c-0.1-0.5-0.1-0.6-0.6-0.4c-0.4,0.2-0.8,0.3-1.3,0.5c-0.5,0.2-0.7,0.4-1-0.3c-0.2-0.6,0-0.8,0.4-1
		c0.9-0.4,1.9-0.7,2.7-1.1c0.5-0.2,0.6,0,0.7,0.4C143.3,42.6,143.4,43.3,143.4,43.8z"/>
	<path class="st0" d="M114.3,37.9c2.1,1.6,3,5.5,2,8.5c-1.3,3.6-4.4,5.5-8.8,5.3c-2.6-0.1-5.7-2.9-6.4-5.6c-0.9-3.3,0.5-7.5,2.9-8.8
		c0.1,0.1,0.1,0.1,0.1,0.1c0.7,0.9,0.4,1.5-0.4,2.3c-1.7,1.9-2,4.1-1.2,6.4c0.8,2.3,2.4,3.8,4.9,4.2c2.7,0.5,5.1-0.6,6.6-2.9
		c1.5-2.3,1.6-5.1-0.1-7.3C113.3,39.1,114.1,38.7,114.3,37.9z"/>
	<path class="st0" d="M157.7,47.5c0,1,0,2,0,3c0,0.2,0.1,0.5-0.3,0.5c-1.7,0.2-3.3,0.3-4.9-0.2c-1.1-0.4-2-1-2.1-2.3
		s0.4-2.1,1.6-2.9c1-0.6,2.1-0.8,3.3-0.9c0.4-0.1,1,0,1.1-0.4c0.1-0.4-0.1-1-0.5-1.4c-0.7-0.7-1.6-0.8-2.4-0.9c-0.4,0-0.9,0-1.3,0
		c-0.2,0-0.7,0.2-0.6-0.4c0.1-0.3-0.1-0.8,0.6-0.8c1,0.1,2,0,3,0.2c1.5,0.4,2.5,1.5,2.6,3.1C157.8,45.4,157.7,46.4,157.7,47.5
		L157.7,47.5z M156.4,47.9c0-0.5,0-1.1,0-1.6c0-0.3-0.1-0.6-0.4-0.5c-1.2,0.2-2.5,0.2-3.6,1c-1,0.8-1,2,0.1,2.7
		c0.6,0.4,1.3,0.5,2,0.5c1.8,0.1,1.8,0.1,1.8-1.7C156.4,48.2,156.4,48,156.4,47.9z"/>
	<path class="st0" d="M180.8,45.6c-1,0-1.9,0-2.9,0c-0.5,0-0.6,0.1-0.5,0.6c0.3,2.1,1.9,3.6,4.2,3.6c0.4,0,0.8,0,1.3,0
		c0.2,0,0.7-0.2,0.6,0.3c-0.1,0.4,0.1,0.8-0.7,0.8c-1.1-0.1-2.3-0.1-3.4-0.4c-1.9-0.6-3-1.9-3.3-3.7c-0.4-1.9,0.1-3.6,1.6-5
		c1.3-1.1,2.7-1.3,4.2-0.7c1.4,0.5,1.9,1.7,2.2,3c0.2,1.4,0.2,1.4-1.1,1.4C182.2,45.6,181.5,45.6,180.8,45.6z M180.1,44.6
		c0.7,0,1.4,0,2.1,0c0.5,0,0.5-0.1,0.4-0.5c-0.4-1.3-1.1-2-2.3-2.1c-1.3-0.1-2.3,0.7-2.8,2.1c-0.2,0.4-0.2,0.7,0.4,0.6
		C178.7,44.6,179.4,44.6,180.1,44.6z"/>
	<path class="st0" d="M190.5,40.9c0.2,0.2,1-0.5,1.1,0.4c0.1,0.5-0.1,0.7-0.6,0.7c-0.7,0-1.4-0.1-2,0.1c-0.7,0.2-1.2,0.6-1.3,1.3
		c-0.1,0.7,0.4,1.1,1,1.4s1.1,0.6,1.6,0.9c1,0.6,1.8,1.4,1.7,2.6c-0.1,1.3-1,2.1-2.3,2.4c-1,0.3-2.1,0.4-3.2,0.2
		c-0.6-0.1-0.5-0.6-0.4-0.9c0.1-0.5,0.5-0.2,0.7-0.1c0.8,0.2,1.7,0.1,2.4-0.1c0.7-0.2,1.2-0.6,1.3-1.3c0.1-0.7-0.3-1.2-0.8-1.5
		c-0.7-0.4-1.3-0.7-2-1.1c-1.1-0.7-1.6-1.7-1.3-3c0.2-0.9,1.2-1.7,2.3-1.9C189.3,41,189.8,40.8,190.5,40.9z"/>
	<path class="st0" d="M173.9,41.9c-0.5,0.2-1.1,0.1-1.7,0.1c-0.5,0-1,0.1-1.4,0.4c-1,0.6-1.1,1.7-0.1,2.4c0.5,0.4,1.2,0.7,1.8,1
		c1.1,0.6,1.9,1.5,1.7,2.9c-0.2,1.3-1.1,2-2.3,2.3c-1,0.2-2,0.4-3,0.2c-0.7-0.2-0.5-0.6-0.5-1c0-0.4,0.5-0.2,0.7-0.1
		c0.8,0.2,1.6,0.1,2.3-0.1c0.7-0.2,1.3-0.5,1.4-1.2c0.2-0.8-0.2-1.3-0.8-1.7c-0.6-0.4-1.3-0.7-1.9-1c-1.1-0.7-1.6-1.7-1.4-2.7
		c0.2-1.1,1.2-1.9,2.4-2.1c0.6-0.1,1.3-0.1,1.9-0.2C173.7,40.8,174,41.1,173.9,41.9z"/>
	<path class="st0" d="M164.7,42c-0.7,0-1.5,0-2.1,0.6c-0.8,0.7-0.7,1.5,0.1,2.1c0.6,0.4,1.3,0.7,1.9,1c1.4,0.8,1.9,1.7,1.7,2.9
		c-0.2,1.3-1.3,2.2-2.7,2.4c-0.8,0.1-1.7,0.2-2.6,0.1c-0.7-0.1-0.5-0.6-0.5-1c0.1-0.4,0.5-0.2,0.7-0.1c0.8,0.2,1.6,0.1,2.4-0.1
		c0.7-0.2,1.2-0.6,1.3-1.3s-0.3-1.2-0.8-1.6c-0.7-0.4-1.3-0.7-2-1.1c-1.1-0.7-1.6-1.6-1.3-2.9c0.2-0.9,1.2-1.8,2.3-2
		c0.7-0.1,1.4-0.2,2.1-0.2c0.5,0,0.8-0.1,0.8,0.7c0,0.8-0.5,0.4-0.8,0.4C165,42,164.9,42,164.7,42z"/>
	<path class="st0" d="M146.1,43.7c0-2.1,0-4.3,0-6.4c0-0.5,0.2-0.6,0.6-0.6s0.8-0.1,0.8,0.6c-0.1,4.4,0,8.7,0,13.1
		c0,0.7-0.4,0.5-0.7,0.5c-0.4,0-0.7,0-0.7-0.5C146.2,48.2,146.1,45.9,146.1,43.7z"/>
	<path class="st0" d="M95.5,11.7c0,0.8-0.6,1.5-1.4,1.5c-0.8,0-1.4-0.7-1.4-1.5c0-0.8,0.6-1.5,1.5-1.5
		C94.9,10.2,95.5,10.8,95.5,11.7z M95.3,11.6c0-0.7-0.6-1.2-1.2-1.2c-0.6,0-1.2,0.6-1.2,1.3c0,0.6,0.6,1.2,1.2,1.2
		C94.8,12.9,95.3,12.3,95.3,11.6z"/>
	<path class="st0" d="M122.6,45.8c-0.7,0-1.3,0-2,0c-0.5,0.1-0.5-0.2-0.5-0.6c0-0.4,0.1-0.5,0.5-0.5c1.3,0,2.7,0,4,0
		c0.5,0,0.5,0.2,0.5,0.6s-0.1,0.5-0.5,0.5C124,45.7,123.3,45.8,122.6,45.8z"/>
	<path class="st0" d="M197.2,39.3c0,1.2-1,2.2-2.1,2.2c-1.2,0-2.1-1-2.1-2.2c0-1.2,0.9-2.1,2-2.1C196.3,37.1,197.2,38,197.2,39.3z
		 M195.1,37.5c-1,0-1.8,0.8-1.8,1.8c0,1,0.8,1.8,1.9,1.8c1,0,1.8-0.8,1.8-1.8C196.9,38.2,196.1,37.5,195.1,37.5z"/>
	<path class="st0" d="M94.3,11.6c0,0,0,0.1,0.1,0.1c0,0-0.1,0-0.1,0.1c-0.7-0.4-0.4,0.4-0.6,0.7c0-0.6,0-1,0-1.4
		c0-0.1-0.1-0.3,0.2-0.3s0.5-0.1,0.7,0.1c0.1,0.1,0.2,0.3,0,0.4C94.5,11.6,94.4,11.7,94.3,11.6c-0.1-0.1,0-0.1,0.1-0.2
		c0.1-0.2,0-0.3-0.1-0.4c-0.1-0.1-0.3-0.1-0.4,0c-0.1,0.1-0.1,0.3,0,0.5C93.9,11.7,94.2,11.6,94.3,11.6z"/>
	<path class="st0" d="M94.4,11.8c0.2,0.2,0.1,0.4,0.2,0.6c-0.3-0.1-0.2-0.4-0.3-0.6C94.3,11.8,94.4,11.8,94.4,11.8z"/>
	<path class="st0" d="M195.5,39.1c-0.1,0.4,0.3,0.8,0.4,1.4c-0.5-0.3-0.3-1.3-1.1-1c-0.4,0.1,0,0.6-0.4,1c0.2-1-0.3-1.7,0.3-2.4
		c0,0.1,0.1,0.1,0.1,0.1c-0.2,0.3-0.3,0.7-0.1,1C195.1,39.5,195.3,39,195.5,39.1L195.5,39.1z"/>
	<path class="st0" d="M195.4,38.2c0.5,0.2,0.8,0.5,0.2,0.9l0,0C195.5,38.8,195.7,38.4,195.4,38.2C195.3,38.2,195.4,38.2,195.4,38.2z
		"/>
	<path class="st0" d="M194.8,38.1c0.2-0.1,0.5-0.2,0.7,0.1c0,0.1-0.1,0.1-0.1,0.1c-0.2,0-0.3-0.1-0.5-0.1
		C194.8,38.2,194.8,38.1,194.8,38.1z"/>
</g>
</svg>
