<?xml version="1.0" encoding="utf-8"?>
<!-- Generator: Adobe Illustrator 21.0.0, SVG Export Plug-In . SVG Version: 6.00 Build 0)  -->
<svg version="1.1" id="Layer_1" xmlns="http://www.w3.org/2000/svg" xmlns:xlink="http://www.w3.org/1999/xlink" x="0px" y="0px"
	 viewBox="0 0 320 307.8" style="enable-background:new 0 0 320 307.8;" xml:space="preserve">
<style type="text/css">
	.st0{fill:#060606;}
</style>
<g>
	<path class="st0" d="M183.4,252.9c-26.8-0.5-52.5-10.9-74-31.6c-1.2-1.2-1.2-1.2-2.6-0.2c-5.4,4.1-10.5,8.5-15.6,12.9
		c-18.2,15.7-36.1,31.8-54.4,47.4c-2.7,2.3-5.4,4.6-8.3,6.7c-1.3,0.9-1.3,0.9-2.3-0.3c-2.1-2.6-4.1-5.1-6.2-7.7
		c-0.6-0.8-0.5-1.3,0.1-1.9c2.6-2.9,5.4-5.5,8.3-8.2c14-13.2,28.4-26,42.6-38.9c7.4-6.7,14.8-13.5,21.9-20.4
		c1.1-1.1,2.2-2.3,3.3-3.5c0.5-0.5,0.5-0.9,0.1-1.5c-8-11.4-13.7-24-16.9-37.6c-2.4-10.1-3.4-20.4-2.8-30.8
		c1.2-23.8,9.2-45,24.1-63.5c16.1-20,36.8-32.9,61.9-38.7c9.5-2.2,19.2-3,28.9-2.5c23.9,1.2,45.3,9.2,64,24.2
		c19.8,16,32.6,36.5,38.4,61.3c2.4,10.3,3.2,20.8,2.5,31.4c-1.2,18.9-6.8,36.5-17.1,52.3c-16.2,24.9-38.7,40.9-67.5,48
		C203.5,252,195,252.9,183.4,252.9z M186.4,244.1c56.4-0.1,101.1-45.7,101.3-100.7c0.3-56-44.9-101.7-100.6-101.9
		C131,41.3,85.4,86.5,85.2,142.4C85,198.3,130.4,243.9,186.4,244.1z"/>
</g>
</svg>
